/* XPM */
static char * Usb_Cable_xpm[] = {
"44 98 170 2",
"  	c None",
". 	c #161817",
"+ 	c #181918",
"@ 	c #141615",
"# 	c #111313",
"$ 	c #0B0D0D",
"% 	c #0F1211",
"& 	c #1B1C1B",
"* 	c #1E1F1E",
"= 	c #1D1E1E",
"- 	c #1D1E1D",
"; 	c #1D1D1D",
"> 	c #1C1D1D",
", 	c #1C1C1C",
"' 	c #1B1C1C",
") 	c #191A19",
"! 	c #101212",
"~ 	c #161717",
"{ 	c #171918",
"] 	c #171818",
"^ 	c #141515",
"/ 	c #121414",
"( 	c #171817",
"_ 	c #151616",
": 	c #111212",
"< 	c #191A1A",
"[ 	c #101111",
"} 	c #191B1A",
"| 	c #131514",
"1 	c #1C1E1D",
"2 	c #0F1010",
"3 	c #131515",
"4 	c #181818",
"5 	c #0E0F10",
"6 	c #0D0E0F",
"7 	c #131414",
"8 	c #0E1010",
"9 	c #151717",
"0 	c #1A1B1B",
"a 	c #151515",
"b 	c #0C0E0E",
"c 	c #181819",
"d 	c #1A1A1A",
"e 	c #181919",
"f 	c #161616",
"g 	c #0C0D0D",
"h 	c #101112",
"i 	c #121313",
"j 	c #151516",
"k 	c #121213",
"l 	c #0A0C0C",
"m 	c #0B0C0C",
"n 	c #0F1111",
"o 	c #131314",
"p 	c #090B0B",
"q 	c #090B0C",
"r 	c #0D0F0F",
"s 	c #0E0F0F",
"t 	c #1B1B1B",
"u 	c #080A0A",
"v 	c #090A0B",
"w 	c #111112",
"x 	c #161617",
"y 	c #171717",
"z 	c #08090A",
"A 	c #0C0D0E",
"B 	c #0B0C0D",
"C 	c #141415",
"D 	c #1B1919",
"E 	c #1E1C1C",
"F 	c #161515",
"G 	c #121212",
"H 	c #191919",
"I 	c #070909",
"J 	c #080909",
"K 	c #0E0E0F",
"L 	c #0C0C0D",
"M 	c #090A0A",
"N 	c #111111",
"O 	c #141414",
"P 	c #201E1E",
"Q 	c #262323",
"R 	c #191818",
"S 	c #060808",
"T 	c #060708",
"U 	c #070808",
"V 	c #0F0F10",
"W 	c #101011",
"X 	c #131313",
"Y 	c #2B2828",
"Z 	c #09090A",
"` 	c #050707",
" .	c #0A0B0B",
"..	c #070809",
"+.	c #0A0B0C",
"@.	c #0D0D0E",
"#.	c #1E1B1B",
"$.	c #0A0A0B",
"%.	c #040707",
"&.	c #060809",
"*.	c #060707",
"=.	c #242121",
"-.	c #060607",
";.	c #0D0E0E",
">.	c #050606",
",.	c #0B0B0C",
"'.	c #040505",
").	c #080809",
"!.	c #232020",
"~.	c #23201F",
"{.	c #221F1F",
"].	c #2B2727",
"^.	c #211E1E",
"/.	c #2A2626",
"(.	c #1F1D1D",
"_.	c #292525",
":.	c #282424",
"<.	c #262322",
"[.	c #272423",
"}.	c #252222",
"|.	c #1D1B1B",
"1.	c #1C1A1A",
"2.	c #242222",
"3.	c #232121",
"4.	c #222020",
"5.	c #1A1919",
"6.	c #211F1F",
"7.	c #1A1818",
"8.	c #191817",
"9.	c #1E1D1D",
"0.	c #1C1B1B",
"a.	c #181716",
"b.	c #181717",
"c.	c #171616",
"d.	c #1B1A1A",
"e.	c #171617",
"f.	c #151414",
"g.	c #161516",
"h.	c #151314",
"i.	c #141313",
"j.	c #191718",
"k.	c #131213",
"l.	c #111010",
"m.	c #131212",
"n.	c #151415",
"o.	c #121111",
"p.	c #100F10",
"q.	c #111011",
"r.	c #161415",
"s.	c #121112",
"t.	c #0E0E0E",
"u.	c #0A0A0A",
"v.	c #141314",
"w.	c #101010",
"x.	c #0F0E0F",
"y.	c #0D0C0D",
"z.	c #0F0F0F",
"A.	c #0D0D0D",
"B.	c #0E0D0D",
"C.	c #0C0B0C",
"D.	c #0E0D0E",
"E.	c #0C0C0C",
"F.	c #070708",
"G.	c #090909",
"H.	c #0B0B0B",
"I.	c #080808",
"J.	c #030505",
"K.	c #060606",
"L.	c #050506",
"M.	c #020404",
"                                                                                        ",
"      . + + + + + + + + + + + + + + @ # # # # # # # # # # # # # # # # # # # # $ $ %     ",
"    # @ # # + + + + + + + + + + + + + + + + + + + + & * * * * = = = - ; > > , , , ' )   ",
"    ! ~ * * * * * * * * * * * * * * & { { { { ] ] ^ ! / ] ] ] ( _ : : ] ] ] ] ] / ] <   ",
"    [ ] } | + + + + + | # . + + + + + + & * * * * * * * * * * * * * * * + + + + + 1 ~   ",
"    2 ~ 3 = = < { + + + + + | # . + + + + @ # @ + + + + . # | + + + + + | # + } * 1 4   ",
"    5 ^ / ' ! + + 1 * * * * * * * * * * 1 + + + . | + + @ @ + + @ @ + + + 1 * 1 * * ~   ",
"    6 7 8 < 9 > 0 # . . ] ! ( ] ] / { + + } * * * * * * * * 1 + + + . . + + * * * * a   ",
"    b 2 : c ^ d 2 ] e e < < d ~ f ~ ~ ^ { { + @ + + + @ + + + & * * * * * * * * * * 7   ",
"    $ g h ~ i 4 2 j # 3 { + + } * * * * * * * * * * * * * * * * * * * * * * * * * * k   ",
"    l m 2 ^ [ _ n o _ ' , > - = * * * * * * * * * * * * * * * * * * * * * * * * * * [   ",
"    p q r o $ o s [ 7 e < < 0 t ' , > - = * * * * * * * * * * * * * * * * * * * * = _   ",
"    u v l w s [ $ s : f x y ] 4 e < < d t ' , ] < = * * * * * * * * * * * * - ; > ' ^   ",
"    z z z 2 A s B B 6 o 7 C a j _ x y ] 4 y D E F G ' , > ; = = * * * * * * - 0 0 H i   ",
"    I J I K m L v M B [ N : k i o 7 C a O P Q P R N s < < d 0 t ' > ; = = * > 4 e ~ !   ",
"    S S T L p v I U p 6 s 5 V W [ N : k X Y Q P R N Z 7 ~ ] 4 e H < d 0 t ' 0 _ f C 2   ",
"    ` ` `  .J U S ` ..+.m L g @.6 s 5 V #.Y Q P R N $.g C ^ a _ x y ] 4 e H H o 7 G 8   ",
"    ` ` %.Z &.*.` %.` J z M $. .+.m L g =.Y Q P R N $.J : G i X 7 C ^ a _ x ~ [ w W [   ",
"      %.%.T S ` %.%.%.*.*.T U ..J z M $.=.Y Q P R N $.*.s V 2 W [ : G i X 7 C s 5 K s   ",
"        %.` *.%.%.%.%.` ` ` ` *.*.*.T U =.Y Q P R N $.-.B g @.;.K s V 2 W [ : @.g m B   ",
"          ` ` %.%.%.%.%.%.%.%.%.` ` ` ` =.Y Q P R N $.>.M v $.+.m B g @.;.K s ,.$.M Z   ",
"              %.%.%.%.%.%.%.%.%.%.%.%.%.=.Y Q P R N $.'.T U U ).z M v $.+.,.B J ....    ",
"                %.%.%.%.%.%.%.%.%.%.%.%.=.Y Q P R N $.'.` ` *.*.*.T U ..J Z v           ",
"                    %.%.%.%.%.%.%.%.%.%.=.Y Q P R N $.'.                                ",
"                                        =.Y Q P R N $.'.                                ",
"                                        =.Y Q P R N $.'.                                ",
"                                        =.Y Q P R N $.'.                                ",
"                                        =.Y Q P R N $.'.                                ",
"                                        =.Y Q P R N $.'.                                ",
"                                        =.Y Q P R N $.'.                                ",
"                                        =.Y Q P R N $.'.                                ",
"                                        =.Y Q P R N $.'.                                ",
"                                        =.Y Q P R N $.'.                                ",
"                                        =.Y Q P R N $.'.                                ",
"                                        =.Y Q P R N $.'.                                ",
"                                        =.Y Q P R N $.'.                                ",
"                                        =.Y Q P R N $.'.                                ",
"                                        =.Y Q P R N $.'.                                ",
"                                        =.Y Q P R N $.'.                                ",
"                                        =.Y Q P R N $.'.                                ",
"                                        =.Y Q P R N $.'.                                ",
"                                        =.Y Q P R N $.'.                                ",
"                                        =.Y Q P R N $.'.                                ",
"                                        =.Y Q P R N $.'.                                ",
"                                        =.Y Q P R N $.'.                                ",
"                                        =.Y Q P R N $.'.                                ",
"                                        =.Y Q P R N $.'.                                ",
"                                        =.Y Q P R N $.'.                                ",
"                                        =.Y Q P R N $.'.                                ",
"                                        =.Y Q P R N $.'.                                ",
"                                        =.Y Q P R N $.'.                                ",
"                                        =.Y Q P R N $.'.                                ",
"                                        =.Y Q P R N $.'.                                ",
"                                        =.Y Q P R N $.'.                                ",
"                                        !.Y Q P R N $.'.                                ",
"                                        ~.Y Q P R N $.'.                                ",
"                                        {.].Q P R N $.'.                                ",
"                                        ^.].Q P R N $.'.                                ",
"                                        P /.Q P R N $.'.                                ",
"                                        (._.Q P R N $.'.                                ",
"                                        E :.<.P R N $.'.                                ",
"                                        #.[.}.P R N $.'.                                ",
"                                        |.Q =.P R N $.'.                                ",
"                                        1.2.3.P R N $.'.                                ",
"                                        D 3.4.P R N $.'.                                ",
"                                        5.4.6.(.R N $.'.                                ",
"                                        7.6.P E R N $.'.                                ",
"                                        8.P 9.0.R N $.'.                                ",
"                                        a.9.|.D b.N $.'.                                ",
"                                        c.|.d.R e.N $.'.                                ",
"                                        F 1.5.b.F N $.'.                                ",
"                                        f.5.b.g.h.N $.'.                                ",
"                                        i.j.c.f.k.l.$.'.                                ",
"                                        m.c.n.k.o.p.$.'.                                ",
"                                        q.r.i.s.p.t.u.'.                                ",
"                                        p.v.G w.x.y.u.'.                                ",
"                                        x.G q.z.A.,.Z '.                                ",
"                                        t.q.z.B.C.$.).'.                                ",
"                                        A.p.D.E.$.J F.'.                                ",
"                                        E.t.L  .G.F.*.'.                                ",
"                                        H.A.,.u.I.F.` J.                                ",
"                                        H.A.,.u.I.F.` J.                                ",
"                                        H.A.,.u.I.F.` J.                                ",
"                                        H.A.,.u.I.F.` J.                                ",
"                                        H.A.,.u.I.F.` J.                                ",
"                                        H.A.,.u.I.F.` J.                                ",
"                                        H.A.,.u.I.F.` J.                                ",
"                                        H.A.,.u.I.F.` J.                                ",
"                                        H.A.,.u.I.F.` J.                                ",
"                                        H.A.,.u.I.F.` J.                                ",
"                                        H.A.,.u.I.F.` J.                                ",
"                                        H.A.,.u.I.F.` J.                                ",
"                                        H.A.,.u.I.F.` J.                                ",
"                                        H.A.,.u.I.F.` J.                                ",
"                                        H.A.,.u.I.F.` J.                                ",
"                                        H.A.,.u.I.F.` J.                                ",
"                                        H.A.,.u.I.F.` J.                                ",
"                                        I.u.).F.K.L.'.M.                                "};
