/* XPM */
static char * C:\Users\pvinco\Desktop\MicroUsb_xpm[] = {
"27 91 148 2",
"  	c None",
". 	c #262727",
"+ 	c #232424",
"@ 	c #212323",
"# 	c #161818",
"$ 	c #333333",
"% 	c #242525",
"& 	c #2A2B2B",
"* 	c #303030",
"= 	c #141616",
"- 	c #1C1D1D",
"; 	c #272828",
"> 	c #262626",
", 	c #2D2E2E",
"' 	c #2E2E2E",
") 	c #282828",
"! 	c #2D2D2E",
"~ 	c #393A3A",
"{ 	c #424243",
"] 	c #383939",
"^ 	c #1D1D1E",
"/ 	c #2F2F30",
"( 	c #494A4B",
"_ 	c #2A2A2A",
": 	c #2D2D2D",
"< 	c #1F1E1F",
"[ 	c #323233",
"} 	c #222223",
"| 	c #373839",
"1 	c #1D1E1E",
"2 	c #3B3C3D",
"3 	c #282929",
"4 	c #232224",
"5 	c #303031",
"6 	c #3B3B3C",
"7 	c #434344",
"8 	c #4B4B4C",
"9 	c #3C3D3E",
"0 	c #252425",
"a 	c #3C3C3D",
"b 	c #454546",
"c 	c #4D4D4E",
"d 	c #3E3E3F",
"e 	c #262526",
"f 	c #333334",
"g 	c #474747",
"h 	c #4F4F50",
"i 	c #272628",
"j 	c #353435",
"k 	c #3F3F40",
"l 	c #494949",
"m 	c #515152",
"n 	c #292829",
"o 	c #373637",
"p 	c #414142",
"q 	c #4A4B4B",
"r 	c #535353",
"s 	c #3D3D3E",
"t 	c #2A292B",
"u 	c #383739",
"v 	c #434244",
"w 	c #4C4C4D",
"x 	c #545455",
"y 	c #3C3C3C",
"z 	c #2B2B2C",
"A 	c #3A393A",
"B 	c #454445",
"C 	c #4E4E4F",
"D 	c #3A3B3B",
"E 	c #2C2C2E",
"F 	c #464647",
"G 	c #505050",
"H 	c #545454",
"I 	c #39393A",
"J 	c #2E2D2F",
"K 	c #3D3C3E",
"L 	c #484849",
"M 	c #525152",
"N 	c #383839",
"O 	c #4A4A4B",
"P 	c #545354",
"Q 	c #515151",
"R 	c #373738",
"S 	c #313032",
"T 	c #404041",
"U 	c #4B4B4D",
"V 	c #555455",
"W 	c #353636",
"X 	c #333133",
"Y 	c #4E4D4E",
"Z 	c #555456",
"` 	c #4D4E4E",
" .	c #343535",
"..	c #343334",
"+.	c #4C4C4C",
"@.	c #353436",
"#.	c #535254",
"$.	c #4A4A4A",
"%.	c #363637",
"&.	c #515051",
"*.	c #303131",
"=.	c #383738",
"-.	c #484749",
";.	c #535354",
">.	c #2F3030",
",.	c #49494B",
"'.	c #444445",
").	c #2E2E2F",
"!.	c #3B3A3B",
"~.	c #525253",
"{.	c #3C3B3D",
"].	c #505051",
"^.	c #4D4D4F",
"/.	c #3E3F3F",
"(.	c #2A2A2B",
"_.	c #3F3E3F",
":.	c #292929",
"<.	c #403F41",
"[.	c #48484A",
"}.	c #424143",
"|.	c #3A3A3C",
"1.	c #272728",
"2.	c #414143",
"3.	c #262627",
"4.	c #434345",
"5.	c #444446",
"6.	c #464546",
"7.	c #3A3A3B",
"8.	c #343435",
"9.	c #232324",
"0.	c #212222",
"a.	c #424244",
"b.	c #3B3A3C",
"c.	c #353536",
"d.	c #202021",
"e.	c #3F3F41",
"f.	c #333234",
"g.	c #2D2D2F",
"h.	c #1E1F1F",
"i.	c #3B3B3D",
"j.	c #323132",
"k.	c #2D2C2E",
"l.	c #1E1E1F",
"m.	c #1B1B1C",
"n.	c #2C2B2C",
"o.	c #1E1E1E",
"p.	c #222122",
"q.	c #302F30",
"    . + + + + + + + + + + + + + + + + + + + + + + @   ",
"# $ $ % $ $ $ $ $ $ $ $ $ $ $ $ $ $ $ $ $ $ $ & * $ = ",
"- $ ; ; $ $ $ $ $ $ $ $ $ $ $ $ $ $ $ $ $ $ $ $ ; $ = ",
"- $ ; ; $ $ $ $ $ $ $ $ $ $ $ $ $ $ $ $ $ $ $ $ ; $ = ",
"- $ ; ; $ $ $ $ $ $ $ $ $ $ $ $ $ $ $ $ $ $ $ $ ; $ = ",
"- $ ; ; $ $ $ $ $ $ $ $ > & , ' $ $ $ $ $ $ $ $ ; $ = ",
"- $ ; ; $ $ $ $ $ $ $ ) ! ~ { ] * $ $ $ $ $ $ $ ; $ = ",
"- $ ; ; $ $ $ $ $ $ $ ^ / ~ { ( _ $ $ $ $ $ $ $ ; $ = ",
"- $ ; ; $ $ $ $ $ $ : < / ~ { ( [ $ $ $ $ $ $ $ ; $ = ",
"- $ ; ; $ $ $ $ $ $ > } / ~ { ( | $ $ $ $ $ $ $ ; $ = ",
"- $ * ; ; ; ; ; ; ; 1 } / ~ { ( 2 ; ; ; ; ; ; ; , $ = ",
"  3 ; ; ; ; ; ; ; ; 1 } / ~ { ( 2 ; ; ; ; ; ; ; ; >   ",
"                      } / ~ { ( 2                     ",
"                      } / ~ { ( 2                     ",
"                      } / ~ { ( 2                     ",
"                      } / ~ { ( 2                     ",
"                      } / ~ { ( 2                     ",
"                      } / ~ { ( 2                     ",
"                      } / ~ { ( 2                     ",
"                      } / ~ { ( 2                     ",
"                      } / ~ { ( 2                     ",
"                      } / ~ { ( 2                     ",
"                      } / ~ { ( 2                     ",
"                      } / ~ { ( 2                     ",
"                      } / ~ { ( 2                     ",
"                      } / ~ { ( 2                     ",
"                      } / ~ { ( 2                     ",
"                      } / ~ { ( 2                     ",
"                      } / ~ { ( 2                     ",
"                      } / ~ { ( 2                     ",
"                      } / ~ { ( 2                     ",
"                      } / ~ { ( 2                     ",
"                      } / ~ { ( 2                     ",
"                      } / ~ { ( 2                     ",
"                      } / ~ { ( 2                     ",
"                      } / ~ { ( 2                     ",
"                      } / ~ { ( 2                     ",
"                      } / ~ { ( 2                     ",
"                      } / ~ { ( 2                     ",
"                      } / ~ { ( 2                     ",
"                      } / ~ { ( 2                     ",
"                      } / ~ { ( 2                     ",
"                      } / ~ { ( 2                     ",
"                      } / ~ { ( 2                     ",
"                      4 5 6 7 8 9                     ",
"                      0 [ a b c d                     ",
"                      e f d g h d                     ",
"                      i j k l m d                     ",
"                      n o p q r s                     ",
"                      t u v w x y                     ",
"                      z A B C x D                     ",
"                      E 6 F G H I                     ",
"                      J K L M r N                     ",
"                      / d O P Q R                     ",
"                      S T U V h W                     ",
"                      X p Y Z `  .                    ",
"                      ..7 h x +.f                     ",
"                      @.B m #.$.[                     ",
"                      %.F r &.L *.                    ",
"                      =.-.;.C F >.                    ",
"                      I ,.;.w '.).                    ",
"                      !.8 ~.O { :                     ",
"                      {.c ].L T z                     ",
"                      s C ^.F /.(.                    ",
"                      _.C 8 '.a :.                    ",
"                      <.c [.}.|.1.                    ",
"                      2.8 F k N 3.                    ",
"                      4.L 7 s %.%                     ",
"                      5.6.T 7.8.9.                    ",
"                      '.{ s N [ 0.                    ",
"                      a.k b.c.5 d.                    ",
"                      e.{.u f.g.h.                    ",
"                      i.!.o j.k.l.                    ",
"                      i.!.o j.k.l.                    ",
"                      i.!.o j.k.l.                    ",
"                      i.!.o j.k.l.                    ",
"                      i.!.o j.k.l.                    ",
"                      i.!.o j.k.l.                    ",
"                      i.!.o j.k.l.                    ",
"                      i.!.o j.k.l.                    ",
"                      i.!.o j.k.l.                    ",
"                      i.!.o j.k.l.                    ",
"                      i.!.o j.k.l.                    ",
"                      i.!.o j.k.l.                    ",
"                      i.!.o j.k.^                     ",
"                      u !.o j.k.m.                    ",
"                      n.!.o j.k.                      ",
"                      o.!.o j.i                       ",
"                        p.q.)                         ",
"                                                      ",
"                                                      "};
