/* XPM */
static char * C:\Users\MXW\Documents\cisco\pt\art\ComponentBox\IoE25x25_xpm[] = {
"25 25 255 2",
"  	c None",
". 	c #38545C",
"+ 	c #26383D",
"@ 	c #24363B",
"# 	c #26373D",
"$ 	c #233439",
"% 	c #23353A",
"& 	c #233539",
"* 	c #25363C",
"= 	c #25373C",
"- 	c #24353A",
"; 	c #24353B",
"> 	c #24363C",
", 	c #223339",
"' 	c #3A575F",
") 	c #365158",
"! 	c #5A848F",
"~ 	c #638C97",
"{ 	c #628894",
"] 	c #43626C",
"^ 	c #3A5860",
"/ 	c #3D5B63",
"( 	c #24363A",
"_ 	c #25383E",
": 	c #23363A",
"< 	c #23343A",
"[ 	c #233438",
"} 	c #223439",
"| 	c #213236",
"1 	c #3F5F69",
"2 	c #42626C",
"3 	c #55818D",
"4 	c #5C8692",
"5 	c #557C88",
"6 	c #43656E",
"7 	c #3E5D66",
"8 	c #3F5F68",
"9 	c #4E7681",
"0 	c #466A73",
"a 	c #507884",
"b 	c #4B707B",
"c 	c #4B717C",
"d 	c #4F747E",
"e 	c #486D77",
"f 	c #527984",
"g 	c #4C737D",
"h 	c #557F8B",
"i 	c #4F7682",
"j 	c #547E8A",
"k 	c #527D88",
"l 	c #537D89",
"m 	c #527A86",
"n 	c #3D5A63",
"o 	c #3F6169",
"p 	c #537B87",
"q 	c #4A6D77",
"r 	c #517984",
"s 	c #446670",
"t 	c #43646E",
"u 	c #2D444A",
"v 	c #2F474E",
"w 	c #30484E",
"x 	c #39575F",
"y 	c #456872",
"z 	c #35525A",
"A 	c #809BA2",
"B 	c #283F45",
"C 	c #749199",
"D 	c #36525A",
"E 	c #3F6069",
"F 	c #3E5C65",
"G 	c #40616A",
"H 	c #3F5E67",
"I 	c #3B5A62",
"J 	c #43666F",
"K 	c #3C5D66",
"L 	c #7195A0",
"M 	c #466A74",
"N 	c #65838C",
"O 	c #466B75",
"P 	c #446770",
"Q 	c #344E55",
"R 	c #324C53",
"S 	c #314A51",
"T 	c #41626B",
"U 	c #496D77",
"V 	c #547680",
"W 	c #6E8991",
"X 	c #41656F",
"Y 	c #69868E",
"Z 	c #597982",
"` 	c #3D5C64",
" .	c #42646E",
"..	c #42646D",
"+.	c #30484F",
"@.	c #375259",
"#.	c #426671",
"$.	c #83A9B3",
"%.	c #40626C",
"&.	c #77979F",
"*.	c #4A707B",
"=.	c #486B76",
"-.	c #364E55",
";.	c #354E55",
">.	c #39565D",
",.	c #628B97",
"'.	c #3E5F68",
").	c #324B51",
"!.	c #3A5A62",
"~.	c #344F57",
"{.	c #476B75",
"].	c #456670",
"^.	c #1D2B2F",
"/.	c #273A3F",
"(.	c #3E5F69",
"_.	c #587F89",
":.	c #567B85",
"<.	c #61838E",
"[.	c #73939C",
"}.	c #517884",
"|.	c #719DA9",
"1.	c #69939F",
"2.	c #547B86",
"3.	c #496E78",
"4.	c #476C76",
"5.	c #4A6F79",
"6.	c #4D747F",
"7.	c #557D88",
"8.	c #466670",
"9.	c #3C5B63",
"0.	c #405F69",
"a.	c #42636C",
"b.	c #456770",
"c.	c #2B4147",
"d.	c #324B52",
"e.	c #4D7580",
"f.	c #436872",
"g.	c #A1C0C9",
"h.	c #ABC6CD",
"i.	c #B8CFD6",
"j.	c #CBDCE0",
"k.	c #42656E",
"l.	c #4E7580",
"m.	c #496E77",
"n.	c #4F7783",
"o.	c #4C717C",
"p.	c #436670",
"q.	c #141D1F",
"r.	c #192529",
"s.	c #1C292C",
"t.	c #26393E",
"u.	c #527B87",
"v.	c #4A707A",
"w.	c #5C8996",
"x.	c #58838F",
"y.	c #496D78",
"z.	c #466D78",
"A.	c #AAC5CD",
"B.	c #B0C8CF",
"C.	c #A0BEC6",
"D.	c #A9C5CC",
"E.	c #486C76",
"F.	c #5B8793",
"G.	c #456973",
"H.	c #2B4046",
"I.	c #42636D",
"J.	c #203034",
"K.	c #273B40",
"L.	c #2D4349",
"M.	c #547D89",
"N.	c #3B5961",
"O.	c #6A99A6",
"P.	c #5F8A97",
"Q.	c #456873",
"R.	c #456C77",
"S.	c #9DB5BC",
"T.	c #8EB0BA",
"U.	c #81A6B0",
"V.	c #95B2B9",
"W.	c #4A6B74",
"X.	c #4F7681",
"Y.	c #1F2D31",
"Z.	c #41616B",
"`.	c #1D2B2E",
" +	c #213135",
".+	c #213136",
"++	c #283C42",
"@+	c #527B86",
"#+	c #4F7782",
"$+	c #42656F",
"%+	c #638F9C",
"&+	c #517781",
"*+	c #395B65",
"=+	c #54737B",
"-+	c #3E5C64",
";+	c #466973",
">+	c #496E79",
",+	c #456871",
"'+	c #40606A",
")+	c #283A40",
"!+	c #293E44",
"~+	c #2A3F44",
"{+	c #324A52",
"]+	c #476B76",
"^+	c #41616A",
"/+	c #4E747F",
"(+	c #648D99",
"_+	c #507680",
":+	c #466974",
"<+	c #3C5B64",
"[+	c #4A6E79",
"}+	c #4B707A",
"|+	c #476C75",
"1+	c #486D78",
"2+	c #557E8A",
"3+	c #557D89",
"4+	c #608A96",
"5+	c #6393A0",
"6+	c #618D9A",
"7+	c #4F7883",
"8+	c #4A6E78",
"9+	c #416069",
"0+	c #456771",
"a+	c #405E66",
"b+	c #405F67",
"c+	c #426068",
"d+	c #3D5B64",
"e+	c #415E67",
"f+	c #3C5A63",
"g+	c #3B5962",
"h+	c #42626B",
"i+	c #365259",
"j+	c #3E5E66",
"k+	c #456972",
"l+	c #1F2E32",
"m+	c #1E2C30",
"n+	c #1D2C30",
"o+	c #1F2F33",
"p+	c #1F2E33",
"q+	c #1F2D32",
"r+	c #1E2D31",
"s+	c #456772",
"t+	c #486C75",
"u+	c #406069",
"v+	c #354F56",
"w+	c #355057",
"x+	c #354F57",
"y+	c #37535B",
"z+	c #38535B",
"A+	c #37545B",
"B+	c #39565E",
"C+	c #44656E",
"D+	c #41626C",
"E+	c #43646D",
"F+	c #405F68",
"                                                  ",
"                                                  ",
"                                                  ",
"                                                  ",
"                                                  ",
"  . + @ # $ $ % % $ & * = - ; > , ' ) ! ~ { ] ^   ",
"  / @ ( _ @ = : < @ = [ } $ & ; | 1 2 3 4 5 6 7   ",
"  8 9 0 a b c d e f g h i j k l m n o p q r s t   ",
"  u v w x y z A B C D E F G H I 7 J K L M N O P   ",
"  Q R S T U V W X Y Z ` P  .6 ..+.@.#.$.%.&.*.=.  ",
"  w -.;.>.,.x '.).!.~.e s {.P ].^./.g (._.:.<.[.  ",
"  }.|.1.2.3.4.5.6.7.8.9.0.a.b b.c.d.e.f.g.h.i.j.  ",
"  3.k.s l.m.n.o.5.p.q.r.s.t.u.v.w.x.y.z.A.B.C.D.  ",
"  e E.3.F.G.6.H.M I.J.t.K.L.M.N.O.P.Q.R.S.T.U.V.  ",
"  y W.6 s {.X.Y.P Z.`. +.+++a s @+#+P y.$+%+&+*+  ",
"  G =+-+;+y P >+,+'+)+!+~+{+]+y.^+T ]+/+(+_+I.:+  ",
"   .<+[+t G q }+6 [+,+M y s t 1 y 6 |+s 1+^+>+>+  ",
"  9.E.2+3+c 4+5+#+6+v.1+>+>+7+8+{.,+9+0+M T e {.  ",
"  . G a+b+7 c+d+a+e+b+f+g+d+7 h+i+j+t k+{.0+3.6   ",
"  f+^.l+m+m+m+l+Y.n+^.o+p+l+q+r+Y.x {.s+3.I.t+u+  ",
"  f+v+w+v+~.x+w+w+x+x+y+z+A+y+y+w+B+C+Z.M D+E+F+  ",
"                                                  ",
"                                                  ",
"                                                  ",
"                                                  "};
