/* XPM */
static char * UsbIcon_xpm[] = {
"16 16 4 1",
" 	c None",
".	c #000000",
"+	c #484848",
"@	c #676767",
"                ",
"                ",
" .............. ",
".+@@@@@@@@@@@@+.",
".@@@@@@@@@@@@@@.",
".@............@.",
".@............@.",
".@@@@@@@@@@@@@@.",
".@.@.@.@.@.@.@@.",
".+@@@@@@@@@@@@+.",
" .............. ",
"                ",
"                ",
"                ",
"                ",
"                "};
