<?xml version="1.0" encoding="utf-8"?>
<!-- Generator: Adobe Illustrator 16.0.0, SVG Export Plug-In . SVG Version: 6.00 Build 0)  -->
<!DOCTYPE svg PUBLIC "-//W3C//DTD SVG 1.1//EN" "http://www.w3.org/Graphics/SVG/1.1/DTD/svg11.dtd">
<svg version="1.1" xmlns="http://www.w3.org/2000/svg" xmlns:xlink="http://www.w3.org/1999/xlink" x="0px" y="0px" width="950px"
	 height="600px" viewBox="-419.5 -265 950 600" enable-background="new -419.5 -265 950 600" xml:space="preserve">
<g id="Physical" display="none">
	<path id="Logical_Inactive_1_" display="inline" fill="#CCCCCC" d="M530.5-65.001v-200h-950v62.177v137.822v85.52
		c0,26.135,22.386,47.321,50,47.321h63.494v219.317c0,26.423,26.085,47.843,58.264,47.843h231.291
		c32.178,0,58.264-21.42,58.264-47.843v-225.8c0-26.423-26.085-47.843-58.264-47.843h-62.467v-78.516H530.5z"/>
	<linearGradient id="Physical_Active_1_" gradientUnits="userSpaceOnUse" x1="-419.5" y1="-31.7471" x2="530.5" y2="-31.7471">
		<stop  offset="0" style="stop-color:#FFFFFF"/>
		<stop  offset="1" style="stop-color:#F7E16B"/>
	</linearGradient>
	<path id="Physical_Active" display="inline" fill="url(#Physical_Active_1_)" d="M-306.006,67.84l0.004-0.001h218.985v85.824
		c0,26.423,26.085,47.843,58.264,47.843h231.291c32.178,0,58.264-21.42,58.264-47.843V-65.001H530.5v-200h-950v62.177v137.822v85.52
		c0,26.135,22.386,47.321,50,47.321"/>
	<path id="Physical_Outline_6_" display="inline" fill="none" stroke="#333333" stroke-width="5" stroke-miterlimit="10" d="
		M-303.506,67.09l0.004-1.751h218.985v87.574c0,26.423,26.085,47.843,58.264,47.843h231.291c32.178,0,58.264-21.42,58.264-47.843
		V-65.751"/>
	<path id="Logical_Outline_2_1_" display="inline" fill="none" stroke="#333333" stroke-width="5" stroke-miterlimit="10" d="
		M-417-265v59.677v137.822v85.52c0,26.135,22.386,47.321,50,47.321h63.494v219.317c0,26.423,26.085,47.843,58.264,47.843h231.291
		c32.178,0,58.264-21.42,58.264-47.843v-81.824"/>
	<g id="Physical_Icon_2_" display="inline">
		
			<linearGradient id="SVGID_1_" gradientUnits="userSpaceOnUse" x1="349.7119" y1="-270.0938" x2="516.8701" y2="-270.0938" gradientTransform="matrix(1 0 0 -1 -340.5 -200)">
			<stop  offset="0" style="stop-color:#CCCCCC"/>
			<stop  offset="1" style="stop-color:#999999"/>
		</linearGradient>
		<rect x="9.212" y="-22.845" fill="url(#SVGID_1_)" stroke="#333333" stroke-miterlimit="10" width="167.158" height="185.877"/>
		
			<linearGradient id="SVGID_2_" gradientUnits="userSpaceOnUse" x1="-381.6729" y1="-211.3955" x2="-247.0791" y2="-211.3955" gradientTransform="matrix(-1 0 0 -1 -220.5 -200)">
			<stop  offset="0" style="stop-color:#999999"/>
			<stop  offset="1" style="stop-color:#4D4D4D"/>
		</linearGradient>
		<rect x="26.579" y="-7.192" fill="url(#SVGID_2_)" stroke="#333333" stroke-miterlimit="10" width="134.594" height="37.175"/>
		
			<linearGradient id="SVGID_3_" gradientUnits="userSpaceOnUse" x1="-381.6729" y1="-266.1802" x2="-247.0791" y2="-266.1802" gradientTransform="matrix(-1 0 0 -1 -220.5 -200)">
			<stop  offset="0" style="stop-color:#999999"/>
			<stop  offset="1" style="stop-color:#4D4D4D"/>
		</linearGradient>
		<rect x="26.579" y="47.593" fill="url(#SVGID_3_)" stroke="#333333" stroke-miterlimit="10" width="134.594" height="37.175"/>
		
			<linearGradient id="SVGID_4_" gradientUnits="userSpaceOnUse" x1="-381.6729" y1="-320.9658" x2="-247.0791" y2="-320.9658" gradientTransform="matrix(-1 0 0 -1 -220.5 -200)">
			<stop  offset="0" style="stop-color:#999999"/>
			<stop  offset="1" style="stop-color:#4D4D4D"/>
		</linearGradient>
		<rect x="26.579" y="102.378" fill="url(#SVGID_4_)" stroke="#333333" stroke-miterlimit="10" width="134.594" height="37.176"/>
	</g>
	<g id="Logical_Icon_2_" display="inline">
		
			<line fill="none" stroke="#333333" stroke-width="5" stroke-miterlimit="10" x1="-210.958" y1="207.278" x2="-124.33" y2="103.324"/>
		
			<line fill="none" stroke="#333333" stroke-width="5" stroke-miterlimit="10" x1="-124.33" y1="103.324" x2="-60.164" y2="280.751"/>
		<path fill="#FFFFFF" stroke="#333333" stroke-width="5" stroke-miterlimit="10" d="M-124.33,81.574
			c16.455,0,29.791,9.739,29.791,21.75c0,12.021-13.336,21.767-29.791,21.767c-16.454,0-29.791-9.746-29.791-21.767
			C-154.121,91.313-140.784,81.574-124.33,81.574z"/>
		<path fill="#FFFFFF" stroke="#333333" stroke-width="5" stroke-miterlimit="10" d="M-210.966,193.737
			c16.454,0,29.791,9.736,29.791,21.75c0,12.011-13.337,21.758-29.791,21.758c-16.455,0-29.792-9.747-29.792-21.758
			C-240.758,203.474-227.421,193.737-210.966,193.737z"/>
		<path fill="#FFFFFF" stroke="#333333" stroke-width="5" stroke-miterlimit="10" d="M-60.164,266.252
			c16.455,0,29.792,9.746,29.792,21.767c0,12.011-13.337,21.75-29.792,21.75c-16.45,0-29.787-9.739-29.787-21.75
			C-89.951,275.998-76.614,266.252-60.164,266.252z"/>
	</g>
</g>
<g id="Logical" opacity="0">
	<path id="Physical_Inactive_2_" fill="#CCCCCC" d="M-306.006,67.84l0.004-0.001h218.985v85.824
		c0,26.423,26.085,47.843,58.264,47.843h231.291c32.178,0,58.264-21.42,58.264-47.843V-65.001H530.5v-200h-950v62.177v137.822v85.52
		c0,26.135,22.386,47.321,50,47.321"/>
	<g id="Physical_Icon_1_">
		
			<linearGradient id="SVGID_5_" gradientUnits="userSpaceOnUse" x1="349.7119" y1="-270.0938" x2="516.8701" y2="-270.0938" gradientTransform="matrix(1 0 0 -1 -340.5 -200)">
			<stop  offset="0" style="stop-color:#CCCCCC"/>
			<stop  offset="1" style="stop-color:#999999"/>
		</linearGradient>
		<rect x="9.212" y="-22.845" fill="url(#SVGID_5_)" stroke="#333333" stroke-miterlimit="10" width="167.158" height="185.877"/>
		
			<linearGradient id="SVGID_6_" gradientUnits="userSpaceOnUse" x1="-381.6729" y1="-211.3955" x2="-247.0791" y2="-211.3955" gradientTransform="matrix(-1 0 0 -1 -220.5 -200)">
			<stop  offset="0" style="stop-color:#999999"/>
			<stop  offset="1" style="stop-color:#4D4D4D"/>
		</linearGradient>
		<rect x="26.579" y="-7.192" fill="url(#SVGID_6_)" stroke="#333333" stroke-miterlimit="10" width="134.594" height="37.175"/>
		
			<linearGradient id="SVGID_7_" gradientUnits="userSpaceOnUse" x1="-381.6729" y1="-266.1802" x2="-247.0791" y2="-266.1802" gradientTransform="matrix(-1 0 0 -1 -220.5 -200)">
			<stop  offset="0" style="stop-color:#999999"/>
			<stop  offset="1" style="stop-color:#4D4D4D"/>
		</linearGradient>
		<rect x="26.579" y="47.593" fill="url(#SVGID_7_)" stroke="#333333" stroke-miterlimit="10" width="134.594" height="37.175"/>
		
			<linearGradient id="SVGID_8_" gradientUnits="userSpaceOnUse" x1="-381.6729" y1="-320.9658" x2="-247.0791" y2="-320.9658" gradientTransform="matrix(-1 0 0 -1 -220.5 -200)">
			<stop  offset="0" style="stop-color:#999999"/>
			<stop  offset="1" style="stop-color:#4D4D4D"/>
		</linearGradient>
		<rect x="26.579" y="102.378" fill="url(#SVGID_8_)" stroke="#333333" stroke-miterlimit="10" width="134.594" height="37.176"/>
	</g>
	<path id="Physical_Outline_2_" fill="none" stroke="#333333" stroke-width="5" stroke-miterlimit="10" d="M-303.506,67.09
		l0.004-1.751h218.985v87.574c0,26.423,26.085,47.843,58.264,47.843h231.291c32.178,0,58.264-21.42,58.264-47.843V-65.751"/>
	<linearGradient id="Logical_Active_1_" gradientUnits="userSpaceOnUse" x1="-419.5" y1="35" x2="530.5" y2="35">
		<stop  offset="0" style="stop-color:#FFFFFF"/>
		<stop  offset="1" style="stop-color:#F7E16B"/>
	</linearGradient>
	<path id="Logical_Active" fill="url(#Logical_Active_1_)" d="M530.5-65.001v-200h-950v62.177v137.822v85.52
		c0,26.135,22.386,47.321,50,47.321h63.494v219.317c0,26.423,26.085,47.843,58.264,47.843h231.291
		c32.178,0,58.264-21.42,58.264-47.843v-225.8c0-26.423-26.085-47.843-58.264-47.843h-62.467v-78.516H530.5z"/>
	<g id="Logical_Icon_1_">
		
			<line fill="none" stroke="#333333" stroke-width="5" stroke-miterlimit="10" x1="-210.958" y1="207.278" x2="-124.33" y2="103.324"/>
		
			<line fill="none" stroke="#333333" stroke-width="5" stroke-miterlimit="10" x1="-124.33" y1="103.324" x2="-60.164" y2="280.751"/>
		<path fill="#FFFFFF" stroke="#333333" stroke-width="5" stroke-miterlimit="10" d="M-124.33,81.574
			c16.455,0,29.791,9.739,29.791,21.75c0,12.021-13.336,21.767-29.791,21.767c-16.454,0-29.791-9.746-29.791-21.767
			C-154.121,91.313-140.784,81.574-124.33,81.574z"/>
		<path fill="#FFFFFF" stroke="#333333" stroke-width="5" stroke-miterlimit="10" d="M-210.966,193.737
			c16.454,0,29.791,9.736,29.791,21.75c0,12.011-13.337,21.758-29.791,21.758c-16.455,0-29.792-9.747-29.792-21.758
			C-240.758,203.474-227.421,193.737-210.966,193.737z"/>
		<path fill="#FFFFFF" stroke="#333333" stroke-width="5" stroke-miterlimit="10" d="M-60.164,266.252
			c16.455,0,29.792,9.746,29.792,21.767c0,12.011-13.337,21.75-29.792,21.75c-16.45,0-29.787-9.739-29.787-21.75
			C-89.951,275.998-76.614,266.252-60.164,266.252z"/>
	</g>
	<path id="Logical_Outline_1_" fill="none" stroke="#333333" stroke-width="5" stroke-miterlimit="10" d="M-417-265v59.677v137.822
		v85.52c0,26.135,22.386,47.321,50,47.321h63.494v219.317c0,26.423,26.085,47.843,58.264,47.843h231.291
		c32.178,0,58.264-21.42,58.264-47.843v-225.8c0-26.423-26.085-47.843-58.264-47.843h-62.467v-78.516"/>
</g>
<g id="Logical_Mask" display="none">
	<path display="inline" fill="#CCCCCC" d="M-28.753,201.506c-32.178,0-58.264-21.42-58.264-47.843V67.839h-218.985l-0.004,0.001
		v219.317c0,26.423,26.085,47.843,58.264,47.843h231.291c32.178,0,58.264-21.42,58.264-47.843v-85.651H-28.753z"/>
	<path id="Physical_Outline_1_" display="inline" fill="none" stroke="#333333" stroke-width="5" stroke-miterlimit="10" d="
		M-303.506,67.09l0.004-1.751h218.985v87.574c0,26.423,26.085,47.843,58.264,47.843h70.92"/>
	<path id="Logical_Outline_2_2_" display="inline" fill="none" stroke="#333333" stroke-width="5" stroke-miterlimit="10" d="
		M-303.506,65.34v219.317c0,26.423,26.085,47.843,58.264,47.843h231.291c32.178,0,58.264-21.42,58.264-47.843v-81.824v-4.583"/>
	<path id="Logical_Outline_2_3_" display="inline" fill="none" stroke="#333333" stroke-width="5" stroke-miterlimit="10" d="
		M-417-265"/>
	<g id="Logical_Icon_3_" display="inline">
		
			<line fill="none" stroke="#333333" stroke-width="5" stroke-miterlimit="10" x1="-210.958" y1="207.278" x2="-124.33" y2="103.324"/>
		
			<line fill="none" stroke="#333333" stroke-width="5" stroke-miterlimit="10" x1="-124.33" y1="103.324" x2="-60.164" y2="280.751"/>
		<path fill="#FFFFFF" stroke="#333333" stroke-width="5" stroke-miterlimit="10" d="M-124.33,81.574
			c16.455,0,29.791,9.739,29.791,21.75c0,12.021-13.336,21.767-29.791,21.767c-16.454,0-29.791-9.746-29.791-21.767
			C-154.121,91.313-140.784,81.574-124.33,81.574z"/>
		<path fill="#FFFFFF" stroke="#333333" stroke-width="5" stroke-miterlimit="10" d="M-210.966,193.737
			c16.454,0,29.791,9.736,29.791,21.75c0,12.011-13.337,21.758-29.791,21.758c-16.455,0-29.792-9.747-29.792-21.758
			C-240.758,203.474-227.421,193.737-210.966,193.737z"/>
		<path fill="#FFFFFF" stroke="#333333" stroke-width="5" stroke-miterlimit="10" d="M-60.164,266.252
			c16.455,0,29.792,9.746,29.792,21.767c0,12.011-13.337,21.75-29.792,21.75c-16.45,0-29.787-9.739-29.787-21.75
			C-89.951,275.998-76.614,266.252-60.164,266.252z"/>
	</g>
</g>
<g id="Physical_Mask">
	<path fill="#CCCCCC" d="M-78.918,13.515h62.467c32.178,0,58.264,21.42,58.264,47.843v140.148h160.725
		c32.178,0,58.264-21.42,58.264-47.843V-65.001H-78.918V13.515z"/>
	<g id="Physical_Icon_3_">
		<linearGradient id="SVGID_9_" gradientUnits="userSpaceOnUse" x1="9.2119" y1="70.0938" x2="176.3701" y2="70.0938">
			<stop  offset="0" style="stop-color:#CCCCCC"/>
			<stop  offset="1" style="stop-color:#999999"/>
		</linearGradient>
		<path fill="url(#SVGID_9_)" stroke="#333333" stroke-miterlimit="10" d="M9.212,18.402c19.307,7.793,32.6,24.097,32.6,42.955
			v101.675H176.37V-22.845H9.212V18.402z"/>
		
			<linearGradient id="SVGID_10_" gradientUnits="userSpaceOnUse" x1="-381.6729" y1="-211.3955" x2="-247.0791" y2="-211.3955" gradientTransform="matrix(-1 0 0 -1 -220.5 -200)">
			<stop  offset="0" style="stop-color:#999999"/>
			<stop  offset="1" style="stop-color:#4D4D4D"/>
		</linearGradient>
		<rect x="26.579" y="-7.192" fill="url(#SVGID_10_)" stroke="#333333" stroke-miterlimit="10" width="134.594" height="37.175"/>
		<linearGradient id="SVGID_11_" gradientUnits="userSpaceOnUse" x1="39.3525" y1="66.1797" x2="161.1729" y2="66.1797">
			<stop  offset="0" style="stop-color:#999999"/>
			<stop  offset="1" style="stop-color:#4D4D4D"/>
		</linearGradient>
		<path fill="url(#SVGID_11_)" stroke="#333333" stroke-miterlimit="10" d="M41.812,61.357v23.41h119.361V47.593H39.353
			C40.945,51.953,41.812,56.571,41.812,61.357z"/>
		<linearGradient id="SVGID_12_" gradientUnits="userSpaceOnUse" x1="41.812" y1="120.9658" x2="161.1729" y2="120.9658">
			<stop  offset="0" style="stop-color:#999999"/>
			<stop  offset="1" style="stop-color:#4D4D4D"/>
		</linearGradient>
		<rect x="41.812" y="102.378" fill="url(#SVGID_12_)" stroke="#333333" stroke-miterlimit="10" width="119.361" height="37.176"/>
	</g>
	<path id="Physical_Outline_4_" fill="none" stroke="#333333" stroke-width="5" stroke-miterlimit="10" d="M44.333,200.756h160.704
		c32.178,0,58.264-21.42,58.264-47.843V-65.751"/>
	<path id="Logical_Outline_3_" fill="none" stroke="#333333" stroke-width="5" stroke-miterlimit="10" d="M-76.418-67.501v78.516
		h62.467c32.178,0,58.264,21.42,58.264,47.843V201.5v1.751"/>
</g>
</svg>
